<svg width="14" height="14" viewBox="0 0 14 14" fill="none" xmlns="http://www.w3.org/2000/svg">
<path d="M11.996 9.12261L10.1579 8.91275C9.71641 8.86209 9.2822 9.01406 8.97102 9.32524L7.63945 10.6568C5.59144 9.61472 3.91251 7.94301 2.87041 5.88775L4.20922 4.54894C4.5204 4.23775 4.67237 3.80355 4.62171 3.3621L4.41185 1.53842C4.325 0.807499 3.70988 0.2575 2.97173 0.2575H1.71976C0.902004 0.2575 0.221746 0.937761 0.272403 1.75552C0.655953 7.93577 5.59868 12.8713 11.7717 13.2548C12.5894 13.3055 13.2697 12.6252 13.2697 11.8075V10.5555C13.2769 9.82459 12.7269 9.20946 11.996 9.12261Z" fill="#212121"/>
</svg>
